%TF.GenerationSoftware,KiCad,Pcbnew,9.0.3-1.fc42*%
%TF.CreationDate,2025-07-19T22:58:11+02:00*%
%TF.ProjectId,yasio,79617369-6f2e-46b6-9963-61645f706362,rev?*%
%TF.SameCoordinates,Original*%
%TF.FileFunction,Soldermask,Top*%
%TF.FilePolarity,Negative*%
%FSLAX46Y46*%
G04 Gerber Fmt 4.6, Leading zero omitted, Abs format (unit mm)*
G04 Created by KiCad (PCBNEW 9.0.3-1.fc42) date 2025-07-19 22:58:11*
%MOMM*%
%LPD*%
G01*
G04 APERTURE LIST*
G04 Aperture macros list*
%AMRoundRect*
0 Rectangle with rounded corners*
0 $1 Rounding radius*
0 $2 $3 $4 $5 $6 $7 $8 $9 X,Y pos of 4 corners*
0 Add a 4 corners polygon primitive as box body*
4,1,4,$2,$3,$4,$5,$6,$7,$8,$9,$2,$3,0*
0 Add four circle primitives for the rounded corners*
1,1,$1+$1,$2,$3*
1,1,$1+$1,$4,$5*
1,1,$1+$1,$6,$7*
1,1,$1+$1,$8,$9*
0 Add four rect primitives between the rounded corners*
20,1,$1+$1,$2,$3,$4,$5,0*
20,1,$1+$1,$4,$5,$6,$7,0*
20,1,$1+$1,$6,$7,$8,$9,0*
20,1,$1+$1,$8,$9,$2,$3,0*%
G04 Aperture macros list end*
%ADD10RoundRect,0.250000X-0.350000X-0.450000X0.350000X-0.450000X0.350000X0.450000X-0.350000X0.450000X0*%
%ADD11RoundRect,0.100000X0.650000X0.100000X-0.650000X0.100000X-0.650000X-0.100000X0.650000X-0.100000X0*%
%ADD12C,1.500000*%
%ADD13R,1.700000X1.700000*%
%ADD14C,2.200000*%
%ADD15RoundRect,0.500000X-1.000000X-0.500000X1.000000X-0.500000X1.000000X0.500000X-1.000000X0.500000X0*%
%ADD16RoundRect,0.250000X-0.475000X0.337500X-0.475000X-0.337500X0.475000X-0.337500X0.475000X0.337500X0*%
%ADD17RoundRect,0.250000X0.475000X-0.337500X0.475000X0.337500X-0.475000X0.337500X-0.475000X-0.337500X0*%
%ADD18R,1.900000X1.900000*%
%ADD19O,1.900000X1.900000*%
%ADD20RoundRect,0.250000X-1.300000X-0.250000X1.300000X-0.250000X1.300000X0.250000X-1.300000X0.250000X0*%
%ADD21RoundRect,0.250000X0.337500X0.475000X-0.337500X0.475000X-0.337500X-0.475000X0.337500X-0.475000X0*%
G04 APERTURE END LIST*
D10*
%TO.C,R5*%
X145400000Y-116300000D03*
X147400000Y-116300000D03*
%TD*%
D11*
%TO.C,U2*%
X116530000Y-109050000D03*
X116530000Y-108400000D03*
X116530000Y-107750000D03*
X113870000Y-107750000D03*
X113870000Y-108400000D03*
X113870000Y-109050000D03*
%TD*%
D12*
%TO.C,FID3*%
X105600000Y-115700000D03*
%TD*%
D10*
%TO.C,R1*%
X145400000Y-106300000D03*
X147400000Y-106300000D03*
%TD*%
D13*
%TO.C,J2*%
X145800000Y-122800000D03*
%TD*%
D14*
%TO.C,H2*%
X150000000Y-102000000D03*
%TD*%
D15*
%TO.C,U1*%
X124200000Y-103040000D03*
X124200000Y-105580000D03*
X124200000Y-108120000D03*
X124200000Y-110660000D03*
X124200000Y-113200000D03*
X124200000Y-115740000D03*
X124200000Y-118280000D03*
X124200000Y-120820000D03*
X124200000Y-123360000D03*
X141200000Y-123360000D03*
X141200000Y-120820000D03*
X141200000Y-118280000D03*
X141200000Y-115740000D03*
X141200000Y-113200000D03*
X141200000Y-110660000D03*
X141200000Y-108120000D03*
X141200000Y-105580000D03*
X141200000Y-103040000D03*
%TD*%
D10*
%TO.C,R6*%
X145400000Y-118800000D03*
X147400000Y-118800000D03*
%TD*%
%TO.C,R4*%
X145400000Y-113800000D03*
X147400000Y-113800000D03*
%TD*%
D14*
%TO.C,H3*%
X102000000Y-123000000D03*
%TD*%
D11*
%TO.C,U4*%
X116530000Y-116850000D03*
X116530000Y-116200000D03*
X116530000Y-115550000D03*
X113870000Y-115550000D03*
X113870000Y-116200000D03*
X113870000Y-116850000D03*
%TD*%
%TO.C,U3*%
X116530000Y-112950000D03*
X116530000Y-112300000D03*
X116530000Y-111650000D03*
X113870000Y-111650000D03*
X113870000Y-112300000D03*
X113870000Y-112950000D03*
%TD*%
D16*
%TO.C,C1*%
X119500000Y-119500000D03*
X119500000Y-121575000D03*
%TD*%
D12*
%TO.C,FID2*%
X151300000Y-107700000D03*
%TD*%
D13*
%TO.C,J5*%
X102000000Y-119000000D03*
%TD*%
D14*
%TO.C,H1*%
X102000000Y-102000000D03*
%TD*%
D10*
%TO.C,R3*%
X145400000Y-111300000D03*
X147400000Y-111300000D03*
%TD*%
D17*
%TO.C,C2*%
X119700000Y-108137500D03*
X119700000Y-106062500D03*
%TD*%
D10*
%TO.C,R2*%
X145400000Y-108800000D03*
X147400000Y-108800000D03*
%TD*%
D18*
%TO.C,J1*%
X117475000Y-102300000D03*
D19*
X114935000Y-102300000D03*
X112395000Y-102300000D03*
X109855000Y-102300000D03*
X107315000Y-102300000D03*
%TD*%
D13*
%TO.C,J4*%
X145800000Y-102000000D03*
%TD*%
D20*
%TO.C,SW1*%
X107500000Y-119500000D03*
X116400000Y-119500000D03*
X107500000Y-123500000D03*
X116400000Y-123500000D03*
%TD*%
D21*
%TO.C,C3*%
X111200000Y-114200000D03*
X109125000Y-114200000D03*
%TD*%
D14*
%TO.C,H4*%
X150000000Y-123000000D03*
%TD*%
D12*
%TO.C,FID1*%
X151300000Y-117000000D03*
%TD*%
M02*
