%TF.GenerationSoftware,KiCad,Pcbnew,9.0.3-1.fc42*%
%TF.CreationDate,2025-07-19T22:58:11+02:00*%
%TF.ProjectId,yasio,79617369-6f2e-46b6-9963-61645f706362,rev?*%
%TF.SameCoordinates,Original*%
%TF.FileFunction,Copper,L1,Top*%
%TF.FilePolarity,Positive*%
%FSLAX46Y46*%
G04 Gerber Fmt 4.6, Leading zero omitted, Abs format (unit mm)*
G04 Created by KiCad (PCBNEW 9.0.3-1.fc42) date 2025-07-19 22:58:11*
%MOMM*%
%LPD*%
G01*
G04 APERTURE LIST*
G04 Aperture macros list*
%AMRoundRect*
0 Rectangle with rounded corners*
0 $1 Rounding radius*
0 $2 $3 $4 $5 $6 $7 $8 $9 X,Y pos of 4 corners*
0 Add a 4 corners polygon primitive as box body*
4,1,4,$2,$3,$4,$5,$6,$7,$8,$9,$2,$3,0*
0 Add four circle primitives for the rounded corners*
1,1,$1+$1,$2,$3*
1,1,$1+$1,$4,$5*
1,1,$1+$1,$6,$7*
1,1,$1+$1,$8,$9*
0 Add four rect primitives between the rounded corners*
20,1,$1+$1,$2,$3,$4,$5,0*
20,1,$1+$1,$4,$5,$6,$7,0*
20,1,$1+$1,$6,$7,$8,$9,0*
20,1,$1+$1,$8,$9,$2,$3,0*%
G04 Aperture macros list end*
%TA.AperFunction,SMDPad,CuDef*%
%ADD10RoundRect,0.250000X-0.350000X-0.450000X0.350000X-0.450000X0.350000X0.450000X-0.350000X0.450000X0*%
%TD*%
%TA.AperFunction,SMDPad,CuDef*%
%ADD11RoundRect,0.100000X0.650000X0.100000X-0.650000X0.100000X-0.650000X-0.100000X0.650000X-0.100000X0*%
%TD*%
%TA.AperFunction,SMDPad,CuDef*%
%ADD12C,0.750000*%
%TD*%
%TA.AperFunction,ComponentPad*%
%ADD13R,1.700000X1.700000*%
%TD*%
%TA.AperFunction,SMDPad,CuDef*%
%ADD14RoundRect,0.500000X-1.000000X-0.500000X1.000000X-0.500000X1.000000X0.500000X-1.000000X0.500000X0*%
%TD*%
%TA.AperFunction,SMDPad,CuDef*%
%ADD15RoundRect,0.250000X-0.475000X0.337500X-0.475000X-0.337500X0.475000X-0.337500X0.475000X0.337500X0*%
%TD*%
%TA.AperFunction,SMDPad,CuDef*%
%ADD16RoundRect,0.250000X0.475000X-0.337500X0.475000X0.337500X-0.475000X0.337500X-0.475000X-0.337500X0*%
%TD*%
%TA.AperFunction,ComponentPad*%
%ADD17R,1.900000X1.900000*%
%TD*%
%TA.AperFunction,ComponentPad*%
%ADD18O,1.900000X1.900000*%
%TD*%
%TA.AperFunction,SMDPad,CuDef*%
%ADD19RoundRect,0.250000X-1.300000X-0.250000X1.300000X-0.250000X1.300000X0.250000X-1.300000X0.250000X0*%
%TD*%
%TA.AperFunction,SMDPad,CuDef*%
%ADD20RoundRect,0.250000X0.337500X0.475000X-0.337500X0.475000X-0.337500X-0.475000X0.337500X-0.475000X0*%
%TD*%
%TA.AperFunction,ViaPad*%
%ADD21C,1.000000*%
%TD*%
%TA.AperFunction,ViaPad*%
%ADD22C,1.100000*%
%TD*%
%TA.AperFunction,ViaPad*%
%ADD23C,1.700000*%
%TD*%
%TA.AperFunction,Conductor*%
%ADD24C,0.800000*%
%TD*%
%TA.AperFunction,Conductor*%
%ADD25C,0.254000*%
%TD*%
%TA.AperFunction,Conductor*%
%ADD26C,0.250000*%
%TD*%
G04 APERTURE END LIST*
D10*
%TO.P,R5,1*%
%TO.N,DAT0*%
X145400000Y-116300000D03*
%TO.P,R5,2*%
%TO.N,+3.3V*%
X147400000Y-116300000D03*
%TD*%
D11*
%TO.P,U2,1,VCCA*%
%TO.N,+3.3V*%
X116530000Y-109050000D03*
%TO.P,U2,2,GND*%
%TO.N,GND*%
X116530000Y-108400000D03*
%TO.P,U2,3,A*%
%TO.N,SIO_CMD*%
X116530000Y-107750000D03*
%TO.P,U2,4,B*%
%TO.N,/5V_CMD*%
X113870000Y-107750000D03*
%TO.P,U2,5,DIR*%
%TO.N,GND*%
X113870000Y-108400000D03*
%TO.P,U2,6,VCCB*%
%TO.N,+5V*%
X113870000Y-109050000D03*
%TD*%
D12*
%TO.P,FID3,*%
%TO.N,*%
X105600000Y-115700000D03*
%TD*%
D10*
%TO.P,R1,1*%
%TO.N,DAT2*%
X145400000Y-106300000D03*
%TO.P,R1,2*%
%TO.N,+3.3V*%
X147400000Y-106300000D03*
%TD*%
D13*
%TO.P,J2,1,Pin_1*%
%TO.N,Net-(J2-Pin_1)*%
X145800000Y-122800000D03*
%TD*%
D14*
%TO.P,U1,1,VBUS*%
%TO.N,+5V*%
X124200000Y-103040000D03*
%TO.P,U1,2,GND*%
%TO.N,GND*%
X124200000Y-105580000D03*
%TO.P,U1,3,3V3*%
%TO.N,+3.3V*%
X124200000Y-108120000D03*
%TO.P,U1,4,IO1*%
%TO.N,SIO_CMD*%
X124200000Y-110660000D03*
%TO.P,U1,5,IO2*%
%TO.N,SIO_DATA_OUT*%
X124200000Y-113200000D03*
%TO.P,U1,6,IO3*%
%TO.N,SIO_DATA_IN*%
X124200000Y-115740000D03*
%TO.P,U1,7,IO4*%
%TO.N,SETUP_EN*%
X124200000Y-118280000D03*
%TO.P,U1,8,IO5*%
%TO.N,unconnected-(U1-IO5-Pad8)*%
X124200000Y-120820000D03*
%TO.P,U1,9,IO6*%
%TO.N,unconnected-(U1-IO6-Pad9)*%
X124200000Y-123360000D03*
%TO.P,U1,10,IO7*%
%TO.N,Net-(J2-Pin_1)*%
X141200000Y-123360000D03*
%TO.P,U1,11,IO8*%
%TO.N,DAT1*%
X141200000Y-120820000D03*
%TO.P,U1,12,IO9*%
%TO.N,DAT0*%
X141200000Y-118280000D03*
%TO.P,U1,13,IO10*%
%TO.N,CLK*%
X141200000Y-115740000D03*
%TO.P,U1,14,IO11*%
%TO.N,CMD*%
X141200000Y-113200000D03*
%TO.P,U1,15,IO12*%
%TO.N,DAT3*%
X141200000Y-110660000D03*
%TO.P,U1,16,IO13*%
%TO.N,DAT2*%
X141200000Y-108120000D03*
%TO.P,U1,17,IO44*%
%TO.N,unconnected-(U1-IO44-Pad17)*%
X141200000Y-105580000D03*
%TO.P,U1,18,IO43*%
%TO.N,Net-(J4-Pin_1)*%
X141200000Y-103040000D03*
%TD*%
D10*
%TO.P,R6,1*%
%TO.N,DAT1*%
X145400000Y-118800000D03*
%TO.P,R6,2*%
%TO.N,+3.3V*%
X147400000Y-118800000D03*
%TD*%
%TO.P,R4,1*%
%TO.N,CLK*%
X145400000Y-113800000D03*
%TO.P,R4,2*%
%TO.N,+3.3V*%
X147400000Y-113800000D03*
%TD*%
D11*
%TO.P,U4,1,VCCA*%
%TO.N,+3.3V*%
X116530000Y-116850000D03*
%TO.P,U4,2,GND*%
%TO.N,GND*%
X116530000Y-116200000D03*
%TO.P,U4,3,A*%
%TO.N,SIO_DATA_IN*%
X116530000Y-115550000D03*
%TO.P,U4,4,B*%
%TO.N,/5V_DATA_IN*%
X113870000Y-115550000D03*
%TO.P,U4,5,DIR*%
%TO.N,+3.3V*%
X113870000Y-116200000D03*
%TO.P,U4,6,VCCB*%
%TO.N,+5V*%
X113870000Y-116850000D03*
%TD*%
%TO.P,U3,1,VCCA*%
%TO.N,+3.3V*%
X116530000Y-112950000D03*
%TO.P,U3,2,GND*%
%TO.N,GND*%
X116530000Y-112300000D03*
%TO.P,U3,3,A*%
%TO.N,SIO_DATA_OUT*%
X116530000Y-111650000D03*
%TO.P,U3,4,B*%
%TO.N,/5V_DATA_OUT*%
X113870000Y-111650000D03*
%TO.P,U3,5,DIR*%
%TO.N,GND*%
X113870000Y-112300000D03*
%TO.P,U3,6,VCCB*%
%TO.N,+5V*%
X113870000Y-112950000D03*
%TD*%
D15*
%TO.P,C1,1*%
%TO.N,SETUP_EN*%
X119500000Y-119500000D03*
%TO.P,C1,2*%
%TO.N,GND*%
X119500000Y-121575000D03*
%TD*%
D12*
%TO.P,FID2,*%
%TO.N,*%
X151300000Y-107700000D03*
%TD*%
D13*
%TO.P,J5,1,Pin_1*%
%TO.N,GND*%
X102000000Y-119000000D03*
%TD*%
D10*
%TO.P,R3,1*%
%TO.N,CMD*%
X145400000Y-111300000D03*
%TO.P,R3,2*%
%TO.N,+3.3V*%
X147400000Y-111300000D03*
%TD*%
D16*
%TO.P,C2,1*%
%TO.N,+3.3V*%
X119700000Y-108137500D03*
%TO.P,C2,2*%
%TO.N,GND*%
X119700000Y-106062500D03*
%TD*%
D10*
%TO.P,R2,1*%
%TO.N,DAT3*%
X145400000Y-108800000D03*
%TO.P,R2,2*%
%TO.N,+3.3V*%
X147400000Y-108800000D03*
%TD*%
D17*
%TO.P,J1,1,Pin_1*%
%TO.N,+5V*%
X117475000Y-102300000D03*
D18*
%TO.P,J1,2,Pin_2*%
%TO.N,GND*%
X114935000Y-102300000D03*
%TO.P,J1,3,Pin_3*%
%TO.N,/5V_CMD*%
X112395000Y-102300000D03*
%TO.P,J1,4,Pin_4*%
%TO.N,/5V_DATA_OUT*%
X109855000Y-102300000D03*
%TO.P,J1,5,Pin_5*%
%TO.N,/5V_DATA_IN*%
X107315000Y-102300000D03*
%TD*%
D13*
%TO.P,J4,1,Pin_1*%
%TO.N,Net-(J4-Pin_1)*%
X145800000Y-102000000D03*
%TD*%
D19*
%TO.P,SW1,1,1*%
%TO.N,SETUP_EN*%
X107500000Y-119500000D03*
X116400000Y-119500000D03*
%TO.P,SW1,2,2*%
%TO.N,GND*%
X107500000Y-123500000D03*
X116400000Y-123500000D03*
%TD*%
D20*
%TO.P,C3,1*%
%TO.N,+5V*%
X111200000Y-114200000D03*
%TO.P,C3,2*%
%TO.N,GND*%
X109125000Y-114200000D03*
%TD*%
D12*
%TO.P,FID1,*%
%TO.N,*%
X151300000Y-117000000D03*
%TD*%
D21*
%TO.N,Net-(J4-Pin_1)*%
X141200000Y-103040000D03*
D22*
%TO.N,GND*%
X109126898Y-112687420D03*
X118500000Y-116200000D03*
D23*
X121635729Y-105583147D03*
D22*
X121090638Y-121572850D03*
X112200000Y-108400000D03*
X112100000Y-112300000D03*
X114000000Y-123500000D03*
X109900000Y-123500000D03*
X118200000Y-108400000D03*
X118500000Y-112300000D03*
%TO.N,/5V_DATA_IN*%
X112353344Y-115550000D03*
X110700000Y-116800000D03*
%TO.N,/5V_DATA_OUT*%
X113000000Y-110400000D03*
X111100000Y-110000000D03*
D21*
%TO.N,CLK*%
X141200000Y-115740000D03*
%TO.N,DAT2*%
X141200000Y-108120000D03*
D23*
%TO.N,+3.3V*%
X136278953Y-113051622D03*
D22*
%TO.N,DAT1*%
X137229214Y-117467266D03*
D21*
%TO.N,DAT0*%
X141300000Y-118280000D03*
%TO.N,DAT3*%
X141200000Y-110660000D03*
%TO.N,CMD*%
X141300000Y-113200000D03*
D22*
%TO.N,SIO_CMD*%
X120900000Y-109600000D03*
X118100000Y-106700000D03*
%TD*%
D24*
%TO.N,+5V*%
X121740000Y-103040000D02*
X121000000Y-102300000D01*
X121000000Y-102300000D02*
X117475000Y-102300000D01*
D25*
X117475000Y-104325000D02*
X115200000Y-106600000D01*
X112400000Y-113500000D02*
X112400000Y-114000000D01*
X112850000Y-109050000D02*
X112100000Y-109800000D01*
X112400000Y-114000000D02*
X112200000Y-114200000D01*
D24*
X124200000Y-103040000D02*
X121740000Y-103040000D01*
D25*
X113870000Y-109050000D02*
X112850000Y-109050000D01*
X112100000Y-109800000D02*
X112100000Y-110800000D01*
X115200000Y-108700000D02*
X114850000Y-109050000D01*
X115200000Y-106600000D02*
X115200000Y-108700000D01*
X113870000Y-112950000D02*
X112950000Y-112950000D01*
X111200000Y-111700000D02*
X111200000Y-114200000D01*
X112950000Y-112950000D02*
X112400000Y-113500000D01*
X111200000Y-115900000D02*
X112150000Y-116850000D01*
X111200000Y-114200000D02*
X111200000Y-115900000D01*
X117475000Y-102300000D02*
X117475000Y-104325000D01*
X112150000Y-116850000D02*
X113870000Y-116850000D01*
X112100000Y-110800000D02*
X111200000Y-111700000D01*
X112200000Y-114200000D02*
X111200000Y-114200000D01*
X114850000Y-109050000D02*
X113650000Y-109050000D01*
%TO.N,Net-(J2-Pin_1)*%
X143240000Y-123360000D02*
X143800000Y-122800000D01*
X141200000Y-123360000D02*
X143240000Y-123360000D01*
X143800000Y-122800000D02*
X145800000Y-122800000D01*
%TO.N,GND*%
X119500000Y-121575000D02*
X121088488Y-121575000D01*
X116150000Y-108400000D02*
X118200000Y-108400000D01*
X118500000Y-112300000D02*
X116150000Y-112300000D01*
D26*
X109125000Y-114200000D02*
X109125000Y-112689318D01*
D24*
X120179353Y-105583147D02*
X119700000Y-106062500D01*
D25*
X118500000Y-116200000D02*
X116150000Y-116200000D01*
X112100000Y-112300000D02*
X114250000Y-112300000D01*
X116400000Y-123500000D02*
X114000000Y-123500000D01*
D24*
X121638876Y-105580000D02*
X121635729Y-105583147D01*
D25*
X107500000Y-123500000D02*
X109900000Y-123500000D01*
D24*
X124200000Y-105580000D02*
X121638876Y-105580000D01*
D25*
X121088488Y-121575000D02*
X121090638Y-121572850D01*
X114250000Y-108400000D02*
X112200000Y-108400000D01*
D24*
X121635729Y-105583147D02*
X120179353Y-105583147D01*
D25*
%TO.N,SETUP_EN*%
X107500000Y-119500000D02*
X116400000Y-119500000D01*
X116400000Y-119500000D02*
X119500000Y-119500000D01*
X119500000Y-119500000D02*
X121100000Y-119500000D01*
X121100000Y-119500000D02*
X122320000Y-118280000D01*
X122320000Y-118280000D02*
X124200000Y-118280000D01*
%TO.N,/5V_DATA_IN*%
X114250000Y-115550000D02*
X113550000Y-115550000D01*
X108000000Y-116800000D02*
X107315000Y-116115000D01*
X110700000Y-116800000D02*
X108000000Y-116800000D01*
X107315000Y-116115000D02*
X107315000Y-102300000D01*
X113870000Y-115550000D02*
X112353344Y-115550000D01*
%TO.N,/5V_CMD*%
X113870000Y-107750000D02*
X112950000Y-107750000D01*
X112395000Y-107195000D02*
X112395000Y-106595000D01*
X112950000Y-107750000D02*
X112395000Y-107195000D01*
X112395000Y-106595000D02*
X112395000Y-102300000D01*
%TO.N,/5V_DATA_OUT*%
X113870000Y-111650000D02*
X113870000Y-111270000D01*
X109855000Y-102300000D02*
X109855000Y-108755000D01*
X113870000Y-111270000D02*
X113000000Y-110400000D01*
X109855000Y-108755000D02*
X111100000Y-110000000D01*
%TO.N,CLK*%
X143500000Y-115200000D02*
X143500000Y-114600000D01*
X143500000Y-114600000D02*
X144300000Y-113800000D01*
X142960000Y-115740000D02*
X143500000Y-115200000D01*
X141200000Y-115740000D02*
X142960000Y-115740000D01*
X144300000Y-113800000D02*
X145400000Y-113800000D01*
%TO.N,DAT2*%
X142980000Y-108120000D02*
X143500000Y-107600000D01*
X141200000Y-108120000D02*
X142980000Y-108120000D01*
X143500000Y-107600000D02*
X143500000Y-107000000D01*
X143500000Y-107000000D02*
X144200000Y-106300000D01*
X144200000Y-106300000D02*
X145400000Y-106300000D01*
D24*
%TO.N,+3.3V*%
X147400000Y-108800000D02*
X147400000Y-111300000D01*
D25*
X116150000Y-112950000D02*
X115550000Y-112950000D01*
X115350000Y-113150000D02*
X115550000Y-112950000D01*
X115300000Y-112700000D02*
X115300000Y-109500000D01*
X115300000Y-115800000D02*
X115300000Y-113200000D01*
D24*
X144800000Y-104400000D02*
X146600000Y-104400000D01*
X124200000Y-108120000D02*
X127120000Y-108120000D01*
D25*
X117900000Y-109500000D02*
X119400000Y-109500000D01*
D24*
X132051622Y-113051622D02*
X136278953Y-113051622D01*
D25*
X117450000Y-109050000D02*
X117900000Y-109500000D01*
D24*
X147400000Y-116300000D02*
X147400000Y-118800000D01*
X142700000Y-101000000D02*
X143900000Y-102200000D01*
X147400000Y-111300000D02*
X147400000Y-113800000D01*
X127120000Y-108120000D02*
X132051622Y-113051622D01*
X146600000Y-104400000D02*
X147400000Y-105200000D01*
X143900000Y-103500000D02*
X144800000Y-104400000D01*
X124200000Y-108120000D02*
X119718150Y-108119350D01*
D25*
X114900000Y-116200000D02*
X115300000Y-115800000D01*
D24*
X147400000Y-105200000D02*
X147400000Y-106300000D01*
D25*
X115550000Y-112950000D02*
X115300000Y-112700000D01*
D24*
X147400000Y-113800000D02*
X147400000Y-116300000D01*
D25*
X115300000Y-113200000D02*
X115550000Y-112950000D01*
X116150000Y-116850000D02*
X115550000Y-116850000D01*
X114900000Y-116200000D02*
X114250000Y-116200000D01*
X119700000Y-109200000D02*
X119700000Y-108137500D01*
X116530000Y-109050000D02*
X117450000Y-109050000D01*
X115550000Y-116850000D02*
X114900000Y-116200000D01*
D24*
X138500000Y-101000000D02*
X142700000Y-101000000D01*
D25*
X115750000Y-109050000D02*
X116150000Y-109050000D01*
D24*
X143900000Y-102200000D02*
X143900000Y-103500000D01*
X119718150Y-108119350D02*
X119700000Y-108137500D01*
X147400000Y-106300000D02*
X147400000Y-108800000D01*
X136278953Y-113051622D02*
X136278953Y-103221047D01*
X136278953Y-103221047D02*
X138500000Y-101000000D01*
D25*
X115300000Y-109500000D02*
X115750000Y-109050000D01*
X119400000Y-109500000D02*
X119700000Y-109200000D01*
X116650000Y-109050000D02*
X116150000Y-109050000D01*
%TO.N,DAT1*%
X143700000Y-120200000D02*
X143700000Y-119400000D01*
X143080000Y-120820000D02*
X143700000Y-120200000D01*
X137229214Y-117467266D02*
X137229214Y-119529214D01*
X143700000Y-119400000D02*
X144300000Y-118800000D01*
X138520000Y-120820000D02*
X141200000Y-120820000D01*
X144300000Y-118800000D02*
X145400000Y-118800000D01*
X141200000Y-120820000D02*
X143080000Y-120820000D01*
X137229214Y-119529214D02*
X138520000Y-120820000D01*
%TO.N,DAT0*%
X143600000Y-117600000D02*
X143600000Y-116800000D01*
X141300000Y-118280000D02*
X142920000Y-118280000D01*
X144100000Y-116300000D02*
X145400000Y-116300000D01*
X143600000Y-116800000D02*
X144100000Y-116300000D01*
X141200000Y-118280000D02*
X141300000Y-118280000D01*
X142920000Y-118280000D02*
X143600000Y-117600000D01*
%TO.N,DAT3*%
X144500000Y-108800000D02*
X145400000Y-108800000D01*
X143600000Y-110000000D02*
X143600000Y-109700000D01*
X141200000Y-110660000D02*
X142940000Y-110660000D01*
X143600000Y-109700000D02*
X144500000Y-108800000D01*
X142940000Y-110660000D02*
X143600000Y-110000000D01*
%TO.N,CMD*%
X142900000Y-113200000D02*
X143500000Y-112600000D01*
X141200000Y-113200000D02*
X141300000Y-113200000D01*
X143500000Y-112100000D02*
X144300000Y-111300000D01*
X141300000Y-113200000D02*
X142900000Y-113200000D01*
X143500000Y-112600000D02*
X143500000Y-112100000D01*
X144300000Y-111300000D02*
X145400000Y-111300000D01*
%TO.N,SIO_DATA_IN*%
X120200000Y-115000000D02*
X120940000Y-115740000D01*
X120940000Y-115740000D02*
X124200000Y-115740000D01*
D26*
X117450000Y-115550000D02*
X118000000Y-115000000D01*
D25*
X118000000Y-115000000D02*
X120200000Y-115000000D01*
D26*
X116530000Y-115550000D02*
X117450000Y-115550000D01*
D25*
%TO.N,SIO_DATA_OUT*%
X117900000Y-111300000D02*
X119300000Y-111300000D01*
D26*
X117550000Y-111650000D02*
X117900000Y-111300000D01*
D25*
X121200000Y-113200000D02*
X124200000Y-113200000D01*
X119300000Y-111300000D02*
X121200000Y-113200000D01*
D26*
X116530000Y-111650000D02*
X117550000Y-111650000D01*
%TO.N,SIO_CMD*%
X116530000Y-107750000D02*
X116530000Y-107070000D01*
D25*
X124200000Y-110660000D02*
X121960000Y-110660000D01*
D26*
X116530000Y-107070000D02*
X116900000Y-106700000D01*
X116900000Y-106700000D02*
X118100000Y-106700000D01*
D25*
X121960000Y-110660000D02*
X120900000Y-109600000D01*
%TD*%
M02*
