M48
; DRILL file {KiCad 9.0.3-1.fc42} date 2025-07-19T22:58:01+0200
; FORMAT={-:-/ absolute / inch / decimal}
; #@! TF.CreationDate,2025-07-19T22:58:01+02:00
; #@! TF.GenerationSoftware,Kicad,Pcbnew,9.0.3-1.fc42
; #@! TF.FileFunction,Plated,1,2,PTH
FMAT,2
INCH
; #@! TA.AperFunction,Plated,PTH,ViaDrill
T1C0.0236
; #@! TA.AperFunction,Plated,PTH,ViaDrill
T2C0.0394
; #@! TA.AperFunction,Plated,PTH,ComponentDrill
T3C0.0394
%
G90
G05
T1
X4.2963Y-4.4365
X4.3268Y-4.8622
X4.3583Y-4.5984
X4.374Y-4.3307
X4.4134Y-4.4213
X4.4173Y-4.2677
X4.4234Y-4.5492
X4.4488Y-4.3465
X4.4882Y-4.8622
X4.6496Y-4.2008
X4.6535Y-4.2677
X4.6654Y-4.4213
X4.6654Y-4.5748
X4.7598Y-4.315
X4.7673Y-4.7863
X5.4027Y-4.6247
X5.5591Y-4.0567
X5.5591Y-4.2567
X5.5591Y-4.3567
X5.5591Y-4.5567
X5.563Y-4.4567
X5.563Y-4.6567
T2
X4.7888Y-4.1568
X5.3653Y-4.4509
T3
X4.0157Y-4.685
X4.225Y-4.0276
X4.325Y-4.0276
X4.425Y-4.0276
X4.525Y-4.0276
X4.625Y-4.0276
X5.7402Y-4.0157
X5.7402Y-4.8346
M30
