%TF.GenerationSoftware,KiCad,Pcbnew,9.0.3-1.fc42*%
%TF.CreationDate,2025-07-19T22:58:11+02:00*%
%TF.ProjectId,yasio,79617369-6f2e-46b6-9963-61645f706362,rev?*%
%TF.SameCoordinates,Original*%
%TF.FileFunction,Legend,Top*%
%TF.FilePolarity,Positive*%
%FSLAX46Y46*%
G04 Gerber Fmt 4.6, Leading zero omitted, Abs format (unit mm)*
G04 Created by KiCad (PCBNEW 9.0.3-1.fc42) date 2025-07-19 22:58:11*
%MOMM*%
%LPD*%
G01*
G04 APERTURE LIST*
%ADD10C,0.200000*%
%ADD11C,0.150000*%
%ADD12C,0.120000*%
G04 APERTURE END LIST*
D10*
X154118915Y-109660149D02*
X153642724Y-109660149D01*
X154642724Y-109326816D02*
X154118915Y-109660149D01*
X154118915Y-109660149D02*
X154642724Y-109993482D01*
X153928439Y-110279197D02*
X153928439Y-110755387D01*
X153642724Y-110183959D02*
X154642724Y-110517292D01*
X154642724Y-110517292D02*
X153642724Y-110850625D01*
X153690344Y-111136340D02*
X153642724Y-111279197D01*
X153642724Y-111279197D02*
X153642724Y-111517292D01*
X153642724Y-111517292D02*
X153690344Y-111612530D01*
X153690344Y-111612530D02*
X153737963Y-111660149D01*
X153737963Y-111660149D02*
X153833201Y-111707768D01*
X153833201Y-111707768D02*
X153928439Y-111707768D01*
X153928439Y-111707768D02*
X154023677Y-111660149D01*
X154023677Y-111660149D02*
X154071296Y-111612530D01*
X154071296Y-111612530D02*
X154118915Y-111517292D01*
X154118915Y-111517292D02*
X154166534Y-111326816D01*
X154166534Y-111326816D02*
X154214153Y-111231578D01*
X154214153Y-111231578D02*
X154261772Y-111183959D01*
X154261772Y-111183959D02*
X154357010Y-111136340D01*
X154357010Y-111136340D02*
X154452248Y-111136340D01*
X154452248Y-111136340D02*
X154547486Y-111183959D01*
X154547486Y-111183959D02*
X154595105Y-111231578D01*
X154595105Y-111231578D02*
X154642724Y-111326816D01*
X154642724Y-111326816D02*
X154642724Y-111564911D01*
X154642724Y-111564911D02*
X154595105Y-111707768D01*
X153642724Y-112136340D02*
X154642724Y-112136340D01*
X154642724Y-112803006D02*
X154642724Y-112993482D01*
X154642724Y-112993482D02*
X154595105Y-113088720D01*
X154595105Y-113088720D02*
X154499867Y-113183958D01*
X154499867Y-113183958D02*
X154309391Y-113231577D01*
X154309391Y-113231577D02*
X153976058Y-113231577D01*
X153976058Y-113231577D02*
X153785582Y-113183958D01*
X153785582Y-113183958D02*
X153690344Y-113088720D01*
X153690344Y-113088720D02*
X153642724Y-112993482D01*
X153642724Y-112993482D02*
X153642724Y-112803006D01*
X153642724Y-112803006D02*
X153690344Y-112707768D01*
X153690344Y-112707768D02*
X153785582Y-112612530D01*
X153785582Y-112612530D02*
X153976058Y-112564911D01*
X153976058Y-112564911D02*
X154309391Y-112564911D01*
X154309391Y-112564911D02*
X154499867Y-112612530D01*
X154499867Y-112612530D02*
X154595105Y-112707768D01*
X154595105Y-112707768D02*
X154642724Y-112803006D01*
X153642724Y-114945863D02*
X153642724Y-114374435D01*
X153642724Y-114660149D02*
X154642724Y-114660149D01*
X154642724Y-114660149D02*
X154499867Y-114564911D01*
X154499867Y-114564911D02*
X154404629Y-114469673D01*
X154404629Y-114469673D02*
X154357010Y-114374435D01*
X153737963Y-115374435D02*
X153690344Y-115422054D01*
X153690344Y-115422054D02*
X153642724Y-115374435D01*
X153642724Y-115374435D02*
X153690344Y-115326816D01*
X153690344Y-115326816D02*
X153737963Y-115374435D01*
X153737963Y-115374435D02*
X153642724Y-115374435D01*
X153642724Y-116374434D02*
X153642724Y-115803006D01*
X153642724Y-116088720D02*
X154642724Y-116088720D01*
X154642724Y-116088720D02*
X154499867Y-115993482D01*
X154499867Y-115993482D02*
X154404629Y-115898244D01*
X154404629Y-115898244D02*
X154357010Y-115803006D01*
X153032780Y-109660149D02*
X153032780Y-109755387D01*
X153032780Y-109755387D02*
X152985161Y-109850625D01*
X152985161Y-109850625D02*
X152937542Y-109898244D01*
X152937542Y-109898244D02*
X152842304Y-109945863D01*
X152842304Y-109945863D02*
X152651828Y-109993482D01*
X152651828Y-109993482D02*
X152413733Y-109993482D01*
X152413733Y-109993482D02*
X152223257Y-109945863D01*
X152223257Y-109945863D02*
X152128019Y-109898244D01*
X152128019Y-109898244D02*
X152080400Y-109850625D01*
X152080400Y-109850625D02*
X152032780Y-109755387D01*
X152032780Y-109755387D02*
X152032780Y-109660149D01*
X152032780Y-109660149D02*
X152080400Y-109564911D01*
X152080400Y-109564911D02*
X152128019Y-109517292D01*
X152128019Y-109517292D02*
X152223257Y-109469673D01*
X152223257Y-109469673D02*
X152413733Y-109422054D01*
X152413733Y-109422054D02*
X152651828Y-109422054D01*
X152651828Y-109422054D02*
X152842304Y-109469673D01*
X152842304Y-109469673D02*
X152937542Y-109517292D01*
X152937542Y-109517292D02*
X152985161Y-109564911D01*
X152985161Y-109564911D02*
X153032780Y-109660149D01*
X153032780Y-110326816D02*
X153032780Y-110993482D01*
X153032780Y-110993482D02*
X152032780Y-110564911D01*
X153080400Y-112088720D02*
X151794685Y-111231578D01*
X152937542Y-112374435D02*
X152985161Y-112422054D01*
X152985161Y-112422054D02*
X153032780Y-112517292D01*
X153032780Y-112517292D02*
X153032780Y-112755387D01*
X153032780Y-112755387D02*
X152985161Y-112850625D01*
X152985161Y-112850625D02*
X152937542Y-112898244D01*
X152937542Y-112898244D02*
X152842304Y-112945863D01*
X152842304Y-112945863D02*
X152747066Y-112945863D01*
X152747066Y-112945863D02*
X152604209Y-112898244D01*
X152604209Y-112898244D02*
X152032780Y-112326816D01*
X152032780Y-112326816D02*
X152032780Y-112945863D01*
X153032780Y-113564911D02*
X153032780Y-113660149D01*
X153032780Y-113660149D02*
X152985161Y-113755387D01*
X152985161Y-113755387D02*
X152937542Y-113803006D01*
X152937542Y-113803006D02*
X152842304Y-113850625D01*
X152842304Y-113850625D02*
X152651828Y-113898244D01*
X152651828Y-113898244D02*
X152413733Y-113898244D01*
X152413733Y-113898244D02*
X152223257Y-113850625D01*
X152223257Y-113850625D02*
X152128019Y-113803006D01*
X152128019Y-113803006D02*
X152080400Y-113755387D01*
X152080400Y-113755387D02*
X152032780Y-113660149D01*
X152032780Y-113660149D02*
X152032780Y-113564911D01*
X152032780Y-113564911D02*
X152080400Y-113469673D01*
X152080400Y-113469673D02*
X152128019Y-113422054D01*
X152128019Y-113422054D02*
X152223257Y-113374435D01*
X152223257Y-113374435D02*
X152413733Y-113326816D01*
X152413733Y-113326816D02*
X152651828Y-113326816D01*
X152651828Y-113326816D02*
X152842304Y-113374435D01*
X152842304Y-113374435D02*
X152937542Y-113422054D01*
X152937542Y-113422054D02*
X152985161Y-113469673D01*
X152985161Y-113469673D02*
X153032780Y-113564911D01*
X152937542Y-114279197D02*
X152985161Y-114326816D01*
X152985161Y-114326816D02*
X153032780Y-114422054D01*
X153032780Y-114422054D02*
X153032780Y-114660149D01*
X153032780Y-114660149D02*
X152985161Y-114755387D01*
X152985161Y-114755387D02*
X152937542Y-114803006D01*
X152937542Y-114803006D02*
X152842304Y-114850625D01*
X152842304Y-114850625D02*
X152747066Y-114850625D01*
X152747066Y-114850625D02*
X152604209Y-114803006D01*
X152604209Y-114803006D02*
X152032780Y-114231578D01*
X152032780Y-114231578D02*
X152032780Y-114850625D01*
X153032780Y-115755387D02*
X153032780Y-115279197D01*
X153032780Y-115279197D02*
X152556590Y-115231578D01*
X152556590Y-115231578D02*
X152604209Y-115279197D01*
X152604209Y-115279197D02*
X152651828Y-115374435D01*
X152651828Y-115374435D02*
X152651828Y-115612530D01*
X152651828Y-115612530D02*
X152604209Y-115707768D01*
X152604209Y-115707768D02*
X152556590Y-115755387D01*
X152556590Y-115755387D02*
X152461352Y-115803006D01*
X152461352Y-115803006D02*
X152223257Y-115803006D01*
X152223257Y-115803006D02*
X152128019Y-115755387D01*
X152128019Y-115755387D02*
X152080400Y-115707768D01*
X152080400Y-115707768D02*
X152032780Y-115612530D01*
X152032780Y-115612530D02*
X152032780Y-115374435D01*
X152032780Y-115374435D02*
X152080400Y-115279197D01*
X152080400Y-115279197D02*
X152128019Y-115231578D01*
X117932780Y-104945863D02*
X117932780Y-104469673D01*
X117932780Y-104469673D02*
X117456590Y-104422054D01*
X117456590Y-104422054D02*
X117504209Y-104469673D01*
X117504209Y-104469673D02*
X117551828Y-104564911D01*
X117551828Y-104564911D02*
X117551828Y-104803006D01*
X117551828Y-104803006D02*
X117504209Y-104898244D01*
X117504209Y-104898244D02*
X117456590Y-104945863D01*
X117456590Y-104945863D02*
X117361352Y-104993482D01*
X117361352Y-104993482D02*
X117123257Y-104993482D01*
X117123257Y-104993482D02*
X117028019Y-104945863D01*
X117028019Y-104945863D02*
X116980400Y-104898244D01*
X116980400Y-104898244D02*
X116932780Y-104803006D01*
X116932780Y-104803006D02*
X116932780Y-104564911D01*
X116932780Y-104564911D02*
X116980400Y-104469673D01*
X116980400Y-104469673D02*
X117028019Y-104422054D01*
X117932780Y-105279197D02*
X116932780Y-105612530D01*
X116932780Y-105612530D02*
X117932780Y-105945863D01*
X112028019Y-104941101D02*
X111980400Y-104893482D01*
X111980400Y-104893482D02*
X111932780Y-104750625D01*
X111932780Y-104750625D02*
X111932780Y-104655387D01*
X111932780Y-104655387D02*
X111980400Y-104512530D01*
X111980400Y-104512530D02*
X112075638Y-104417292D01*
X112075638Y-104417292D02*
X112170876Y-104369673D01*
X112170876Y-104369673D02*
X112361352Y-104322054D01*
X112361352Y-104322054D02*
X112504209Y-104322054D01*
X112504209Y-104322054D02*
X112694685Y-104369673D01*
X112694685Y-104369673D02*
X112789923Y-104417292D01*
X112789923Y-104417292D02*
X112885161Y-104512530D01*
X112885161Y-104512530D02*
X112932780Y-104655387D01*
X112932780Y-104655387D02*
X112932780Y-104750625D01*
X112932780Y-104750625D02*
X112885161Y-104893482D01*
X112885161Y-104893482D02*
X112837542Y-104941101D01*
X111932780Y-105369673D02*
X112932780Y-105369673D01*
X112932780Y-105369673D02*
X112218495Y-105703006D01*
X112218495Y-105703006D02*
X112932780Y-106036339D01*
X112932780Y-106036339D02*
X111932780Y-106036339D01*
X111932780Y-106512530D02*
X112932780Y-106512530D01*
X112932780Y-106512530D02*
X112932780Y-106750625D01*
X112932780Y-106750625D02*
X112885161Y-106893482D01*
X112885161Y-106893482D02*
X112789923Y-106988720D01*
X112789923Y-106988720D02*
X112694685Y-107036339D01*
X112694685Y-107036339D02*
X112504209Y-107083958D01*
X112504209Y-107083958D02*
X112361352Y-107083958D01*
X112361352Y-107083958D02*
X112170876Y-107036339D01*
X112170876Y-107036339D02*
X112075638Y-106988720D01*
X112075638Y-106988720D02*
X111980400Y-106893482D01*
X111980400Y-106893482D02*
X111932780Y-106750625D01*
X111932780Y-106750625D02*
X111932780Y-106512530D01*
X106832780Y-104369673D02*
X107832780Y-104369673D01*
X107832780Y-104369673D02*
X107832780Y-104607768D01*
X107832780Y-104607768D02*
X107785161Y-104750625D01*
X107785161Y-104750625D02*
X107689923Y-104845863D01*
X107689923Y-104845863D02*
X107594685Y-104893482D01*
X107594685Y-104893482D02*
X107404209Y-104941101D01*
X107404209Y-104941101D02*
X107261352Y-104941101D01*
X107261352Y-104941101D02*
X107070876Y-104893482D01*
X107070876Y-104893482D02*
X106975638Y-104845863D01*
X106975638Y-104845863D02*
X106880400Y-104750625D01*
X106880400Y-104750625D02*
X106832780Y-104607768D01*
X106832780Y-104607768D02*
X106832780Y-104369673D01*
X107118495Y-105322054D02*
X107118495Y-105798244D01*
X106832780Y-105226816D02*
X107832780Y-105560149D01*
X107832780Y-105560149D02*
X106832780Y-105893482D01*
X107832780Y-106083959D02*
X107832780Y-106655387D01*
X106832780Y-106369673D02*
X107832780Y-106369673D01*
X107118495Y-106941102D02*
X107118495Y-107417292D01*
X106832780Y-106845864D02*
X107832780Y-107179197D01*
X107832780Y-107179197D02*
X106832780Y-107512530D01*
X106737542Y-107607769D02*
X106737542Y-108369673D01*
X106832780Y-108607769D02*
X107832780Y-108607769D01*
X106832780Y-109083959D02*
X107832780Y-109083959D01*
X107832780Y-109083959D02*
X106832780Y-109655387D01*
X106832780Y-109655387D02*
X107832780Y-109655387D01*
X109432780Y-104369673D02*
X110432780Y-104369673D01*
X110432780Y-104369673D02*
X110432780Y-104607768D01*
X110432780Y-104607768D02*
X110385161Y-104750625D01*
X110385161Y-104750625D02*
X110289923Y-104845863D01*
X110289923Y-104845863D02*
X110194685Y-104893482D01*
X110194685Y-104893482D02*
X110004209Y-104941101D01*
X110004209Y-104941101D02*
X109861352Y-104941101D01*
X109861352Y-104941101D02*
X109670876Y-104893482D01*
X109670876Y-104893482D02*
X109575638Y-104845863D01*
X109575638Y-104845863D02*
X109480400Y-104750625D01*
X109480400Y-104750625D02*
X109432780Y-104607768D01*
X109432780Y-104607768D02*
X109432780Y-104369673D01*
X109718495Y-105322054D02*
X109718495Y-105798244D01*
X109432780Y-105226816D02*
X110432780Y-105560149D01*
X110432780Y-105560149D02*
X109432780Y-105893482D01*
X110432780Y-106083959D02*
X110432780Y-106655387D01*
X109432780Y-106369673D02*
X110432780Y-106369673D01*
X109718495Y-106941102D02*
X109718495Y-107417292D01*
X109432780Y-106845864D02*
X110432780Y-107179197D01*
X110432780Y-107179197D02*
X109432780Y-107512530D01*
X109337542Y-107607769D02*
X109337542Y-108369673D01*
X110432780Y-108798245D02*
X110432780Y-108988721D01*
X110432780Y-108988721D02*
X110385161Y-109083959D01*
X110385161Y-109083959D02*
X110289923Y-109179197D01*
X110289923Y-109179197D02*
X110099447Y-109226816D01*
X110099447Y-109226816D02*
X109766114Y-109226816D01*
X109766114Y-109226816D02*
X109575638Y-109179197D01*
X109575638Y-109179197D02*
X109480400Y-109083959D01*
X109480400Y-109083959D02*
X109432780Y-108988721D01*
X109432780Y-108988721D02*
X109432780Y-108798245D01*
X109432780Y-108798245D02*
X109480400Y-108703007D01*
X109480400Y-108703007D02*
X109575638Y-108607769D01*
X109575638Y-108607769D02*
X109766114Y-108560150D01*
X109766114Y-108560150D02*
X110099447Y-108560150D01*
X110099447Y-108560150D02*
X110289923Y-108607769D01*
X110289923Y-108607769D02*
X110385161Y-108703007D01*
X110385161Y-108703007D02*
X110432780Y-108798245D01*
X110432780Y-109655388D02*
X109623257Y-109655388D01*
X109623257Y-109655388D02*
X109528019Y-109703007D01*
X109528019Y-109703007D02*
X109480400Y-109750626D01*
X109480400Y-109750626D02*
X109432780Y-109845864D01*
X109432780Y-109845864D02*
X109432780Y-110036340D01*
X109432780Y-110036340D02*
X109480400Y-110131578D01*
X109480400Y-110131578D02*
X109528019Y-110179197D01*
X109528019Y-110179197D02*
X109623257Y-110226816D01*
X109623257Y-110226816D02*
X110432780Y-110226816D01*
X110432780Y-110560150D02*
X110432780Y-111131578D01*
X109432780Y-110845864D02*
X110432780Y-110845864D01*
X105722054Y-117919600D02*
X105864911Y-117967219D01*
X105864911Y-117967219D02*
X106103006Y-117967219D01*
X106103006Y-117967219D02*
X106198244Y-117919600D01*
X106198244Y-117919600D02*
X106245863Y-117871980D01*
X106245863Y-117871980D02*
X106293482Y-117776742D01*
X106293482Y-117776742D02*
X106293482Y-117681504D01*
X106293482Y-117681504D02*
X106245863Y-117586266D01*
X106245863Y-117586266D02*
X106198244Y-117538647D01*
X106198244Y-117538647D02*
X106103006Y-117491028D01*
X106103006Y-117491028D02*
X105912530Y-117443409D01*
X105912530Y-117443409D02*
X105817292Y-117395790D01*
X105817292Y-117395790D02*
X105769673Y-117348171D01*
X105769673Y-117348171D02*
X105722054Y-117252933D01*
X105722054Y-117252933D02*
X105722054Y-117157695D01*
X105722054Y-117157695D02*
X105769673Y-117062457D01*
X105769673Y-117062457D02*
X105817292Y-117014838D01*
X105817292Y-117014838D02*
X105912530Y-116967219D01*
X105912530Y-116967219D02*
X106150625Y-116967219D01*
X106150625Y-116967219D02*
X106293482Y-117014838D01*
X106722054Y-117443409D02*
X107055387Y-117443409D01*
X107198244Y-117967219D02*
X106722054Y-117967219D01*
X106722054Y-117967219D02*
X106722054Y-116967219D01*
X106722054Y-116967219D02*
X107198244Y-116967219D01*
X107483959Y-116967219D02*
X108055387Y-116967219D01*
X107769673Y-117967219D02*
X107769673Y-116967219D01*
X108388721Y-116967219D02*
X108388721Y-117776742D01*
X108388721Y-117776742D02*
X108436340Y-117871980D01*
X108436340Y-117871980D02*
X108483959Y-117919600D01*
X108483959Y-117919600D02*
X108579197Y-117967219D01*
X108579197Y-117967219D02*
X108769673Y-117967219D01*
X108769673Y-117967219D02*
X108864911Y-117919600D01*
X108864911Y-117919600D02*
X108912530Y-117871980D01*
X108912530Y-117871980D02*
X108960149Y-117776742D01*
X108960149Y-117776742D02*
X108960149Y-116967219D01*
X109436340Y-117967219D02*
X109436340Y-116967219D01*
X109436340Y-116967219D02*
X109817292Y-116967219D01*
X109817292Y-116967219D02*
X109912530Y-117014838D01*
X109912530Y-117014838D02*
X109960149Y-117062457D01*
X109960149Y-117062457D02*
X110007768Y-117157695D01*
X110007768Y-117157695D02*
X110007768Y-117300552D01*
X110007768Y-117300552D02*
X109960149Y-117395790D01*
X109960149Y-117395790D02*
X109912530Y-117443409D01*
X109912530Y-117443409D02*
X109817292Y-117491028D01*
X109817292Y-117491028D02*
X109436340Y-117491028D01*
X115385161Y-104893482D02*
X115432780Y-104798244D01*
X115432780Y-104798244D02*
X115432780Y-104655387D01*
X115432780Y-104655387D02*
X115385161Y-104512530D01*
X115385161Y-104512530D02*
X115289923Y-104417292D01*
X115289923Y-104417292D02*
X115194685Y-104369673D01*
X115194685Y-104369673D02*
X115004209Y-104322054D01*
X115004209Y-104322054D02*
X114861352Y-104322054D01*
X114861352Y-104322054D02*
X114670876Y-104369673D01*
X114670876Y-104369673D02*
X114575638Y-104417292D01*
X114575638Y-104417292D02*
X114480400Y-104512530D01*
X114480400Y-104512530D02*
X114432780Y-104655387D01*
X114432780Y-104655387D02*
X114432780Y-104750625D01*
X114432780Y-104750625D02*
X114480400Y-104893482D01*
X114480400Y-104893482D02*
X114528019Y-104941101D01*
X114528019Y-104941101D02*
X114861352Y-104941101D01*
X114861352Y-104941101D02*
X114861352Y-104750625D01*
X114432780Y-105369673D02*
X115432780Y-105369673D01*
X115432780Y-105369673D02*
X114432780Y-105941101D01*
X114432780Y-105941101D02*
X115432780Y-105941101D01*
X114432780Y-106417292D02*
X115432780Y-106417292D01*
X115432780Y-106417292D02*
X115432780Y-106655387D01*
X115432780Y-106655387D02*
X115385161Y-106798244D01*
X115385161Y-106798244D02*
X115289923Y-106893482D01*
X115289923Y-106893482D02*
X115194685Y-106941101D01*
X115194685Y-106941101D02*
X115004209Y-106988720D01*
X115004209Y-106988720D02*
X114861352Y-106988720D01*
X114861352Y-106988720D02*
X114670876Y-106941101D01*
X114670876Y-106941101D02*
X114575638Y-106893482D01*
X114575638Y-106893482D02*
X114480400Y-106798244D01*
X114480400Y-106798244D02*
X114432780Y-106655387D01*
X114432780Y-106655387D02*
X114432780Y-106417292D01*
D11*
X149033333Y-116854819D02*
X148700000Y-116378628D01*
X148461905Y-116854819D02*
X148461905Y-115854819D01*
X148461905Y-115854819D02*
X148842857Y-115854819D01*
X148842857Y-115854819D02*
X148938095Y-115902438D01*
X148938095Y-115902438D02*
X148985714Y-115950057D01*
X148985714Y-115950057D02*
X149033333Y-116045295D01*
X149033333Y-116045295D02*
X149033333Y-116188152D01*
X149033333Y-116188152D02*
X148985714Y-116283390D01*
X148985714Y-116283390D02*
X148938095Y-116331009D01*
X148938095Y-116331009D02*
X148842857Y-116378628D01*
X148842857Y-116378628D02*
X148461905Y-116378628D01*
X149938095Y-115854819D02*
X149461905Y-115854819D01*
X149461905Y-115854819D02*
X149414286Y-116331009D01*
X149414286Y-116331009D02*
X149461905Y-116283390D01*
X149461905Y-116283390D02*
X149557143Y-116235771D01*
X149557143Y-116235771D02*
X149795238Y-116235771D01*
X149795238Y-116235771D02*
X149890476Y-116283390D01*
X149890476Y-116283390D02*
X149938095Y-116331009D01*
X149938095Y-116331009D02*
X149985714Y-116426247D01*
X149985714Y-116426247D02*
X149985714Y-116664342D01*
X149985714Y-116664342D02*
X149938095Y-116759580D01*
X149938095Y-116759580D02*
X149890476Y-116807200D01*
X149890476Y-116807200D02*
X149795238Y-116854819D01*
X149795238Y-116854819D02*
X149557143Y-116854819D01*
X149557143Y-116854819D02*
X149461905Y-116807200D01*
X149461905Y-116807200D02*
X149414286Y-116759580D01*
X117738095Y-109154819D02*
X117738095Y-109964342D01*
X117738095Y-109964342D02*
X117785714Y-110059580D01*
X117785714Y-110059580D02*
X117833333Y-110107200D01*
X117833333Y-110107200D02*
X117928571Y-110154819D01*
X117928571Y-110154819D02*
X118119047Y-110154819D01*
X118119047Y-110154819D02*
X118214285Y-110107200D01*
X118214285Y-110107200D02*
X118261904Y-110059580D01*
X118261904Y-110059580D02*
X118309523Y-109964342D01*
X118309523Y-109964342D02*
X118309523Y-109154819D01*
X118738095Y-109250057D02*
X118785714Y-109202438D01*
X118785714Y-109202438D02*
X118880952Y-109154819D01*
X118880952Y-109154819D02*
X119119047Y-109154819D01*
X119119047Y-109154819D02*
X119214285Y-109202438D01*
X119214285Y-109202438D02*
X119261904Y-109250057D01*
X119261904Y-109250057D02*
X119309523Y-109345295D01*
X119309523Y-109345295D02*
X119309523Y-109440533D01*
X119309523Y-109440533D02*
X119261904Y-109583390D01*
X119261904Y-109583390D02*
X118690476Y-110154819D01*
X118690476Y-110154819D02*
X119309523Y-110154819D01*
X149033333Y-106754819D02*
X148700000Y-106278628D01*
X148461905Y-106754819D02*
X148461905Y-105754819D01*
X148461905Y-105754819D02*
X148842857Y-105754819D01*
X148842857Y-105754819D02*
X148938095Y-105802438D01*
X148938095Y-105802438D02*
X148985714Y-105850057D01*
X148985714Y-105850057D02*
X149033333Y-105945295D01*
X149033333Y-105945295D02*
X149033333Y-106088152D01*
X149033333Y-106088152D02*
X148985714Y-106183390D01*
X148985714Y-106183390D02*
X148938095Y-106231009D01*
X148938095Y-106231009D02*
X148842857Y-106278628D01*
X148842857Y-106278628D02*
X148461905Y-106278628D01*
X149985714Y-106754819D02*
X149414286Y-106754819D01*
X149700000Y-106754819D02*
X149700000Y-105754819D01*
X149700000Y-105754819D02*
X149604762Y-105897676D01*
X149604762Y-105897676D02*
X149509524Y-105992914D01*
X149509524Y-105992914D02*
X149414286Y-106040533D01*
X120638095Y-101354819D02*
X120638095Y-102164342D01*
X120638095Y-102164342D02*
X120685714Y-102259580D01*
X120685714Y-102259580D02*
X120733333Y-102307200D01*
X120733333Y-102307200D02*
X120828571Y-102354819D01*
X120828571Y-102354819D02*
X121019047Y-102354819D01*
X121019047Y-102354819D02*
X121114285Y-102307200D01*
X121114285Y-102307200D02*
X121161904Y-102259580D01*
X121161904Y-102259580D02*
X121209523Y-102164342D01*
X121209523Y-102164342D02*
X121209523Y-101354819D01*
X122209523Y-102354819D02*
X121638095Y-102354819D01*
X121923809Y-102354819D02*
X121923809Y-101354819D01*
X121923809Y-101354819D02*
X121828571Y-101497676D01*
X121828571Y-101497676D02*
X121733333Y-101592914D01*
X121733333Y-101592914D02*
X121638095Y-101640533D01*
X149033333Y-119154819D02*
X148700000Y-118678628D01*
X148461905Y-119154819D02*
X148461905Y-118154819D01*
X148461905Y-118154819D02*
X148842857Y-118154819D01*
X148842857Y-118154819D02*
X148938095Y-118202438D01*
X148938095Y-118202438D02*
X148985714Y-118250057D01*
X148985714Y-118250057D02*
X149033333Y-118345295D01*
X149033333Y-118345295D02*
X149033333Y-118488152D01*
X149033333Y-118488152D02*
X148985714Y-118583390D01*
X148985714Y-118583390D02*
X148938095Y-118631009D01*
X148938095Y-118631009D02*
X148842857Y-118678628D01*
X148842857Y-118678628D02*
X148461905Y-118678628D01*
X149890476Y-118154819D02*
X149700000Y-118154819D01*
X149700000Y-118154819D02*
X149604762Y-118202438D01*
X149604762Y-118202438D02*
X149557143Y-118250057D01*
X149557143Y-118250057D02*
X149461905Y-118392914D01*
X149461905Y-118392914D02*
X149414286Y-118583390D01*
X149414286Y-118583390D02*
X149414286Y-118964342D01*
X149414286Y-118964342D02*
X149461905Y-119059580D01*
X149461905Y-119059580D02*
X149509524Y-119107200D01*
X149509524Y-119107200D02*
X149604762Y-119154819D01*
X149604762Y-119154819D02*
X149795238Y-119154819D01*
X149795238Y-119154819D02*
X149890476Y-119107200D01*
X149890476Y-119107200D02*
X149938095Y-119059580D01*
X149938095Y-119059580D02*
X149985714Y-118964342D01*
X149985714Y-118964342D02*
X149985714Y-118726247D01*
X149985714Y-118726247D02*
X149938095Y-118631009D01*
X149938095Y-118631009D02*
X149890476Y-118583390D01*
X149890476Y-118583390D02*
X149795238Y-118535771D01*
X149795238Y-118535771D02*
X149604762Y-118535771D01*
X149604762Y-118535771D02*
X149509524Y-118583390D01*
X149509524Y-118583390D02*
X149461905Y-118631009D01*
X149461905Y-118631009D02*
X149414286Y-118726247D01*
X149033333Y-114354819D02*
X148700000Y-113878628D01*
X148461905Y-114354819D02*
X148461905Y-113354819D01*
X148461905Y-113354819D02*
X148842857Y-113354819D01*
X148842857Y-113354819D02*
X148938095Y-113402438D01*
X148938095Y-113402438D02*
X148985714Y-113450057D01*
X148985714Y-113450057D02*
X149033333Y-113545295D01*
X149033333Y-113545295D02*
X149033333Y-113688152D01*
X149033333Y-113688152D02*
X148985714Y-113783390D01*
X148985714Y-113783390D02*
X148938095Y-113831009D01*
X148938095Y-113831009D02*
X148842857Y-113878628D01*
X148842857Y-113878628D02*
X148461905Y-113878628D01*
X149890476Y-113688152D02*
X149890476Y-114354819D01*
X149652381Y-113307200D02*
X149414286Y-114021485D01*
X149414286Y-114021485D02*
X150033333Y-114021485D01*
X117738095Y-116854819D02*
X117738095Y-117664342D01*
X117738095Y-117664342D02*
X117785714Y-117759580D01*
X117785714Y-117759580D02*
X117833333Y-117807200D01*
X117833333Y-117807200D02*
X117928571Y-117854819D01*
X117928571Y-117854819D02*
X118119047Y-117854819D01*
X118119047Y-117854819D02*
X118214285Y-117807200D01*
X118214285Y-117807200D02*
X118261904Y-117759580D01*
X118261904Y-117759580D02*
X118309523Y-117664342D01*
X118309523Y-117664342D02*
X118309523Y-116854819D01*
X119214285Y-117188152D02*
X119214285Y-117854819D01*
X118976190Y-116807200D02*
X118738095Y-117521485D01*
X118738095Y-117521485D02*
X119357142Y-117521485D01*
X117738095Y-112854819D02*
X117738095Y-113664342D01*
X117738095Y-113664342D02*
X117785714Y-113759580D01*
X117785714Y-113759580D02*
X117833333Y-113807200D01*
X117833333Y-113807200D02*
X117928571Y-113854819D01*
X117928571Y-113854819D02*
X118119047Y-113854819D01*
X118119047Y-113854819D02*
X118214285Y-113807200D01*
X118214285Y-113807200D02*
X118261904Y-113759580D01*
X118261904Y-113759580D02*
X118309523Y-113664342D01*
X118309523Y-113664342D02*
X118309523Y-112854819D01*
X118690476Y-112854819D02*
X119309523Y-112854819D01*
X119309523Y-112854819D02*
X118976190Y-113235771D01*
X118976190Y-113235771D02*
X119119047Y-113235771D01*
X119119047Y-113235771D02*
X119214285Y-113283390D01*
X119214285Y-113283390D02*
X119261904Y-113331009D01*
X119261904Y-113331009D02*
X119309523Y-113426247D01*
X119309523Y-113426247D02*
X119309523Y-113664342D01*
X119309523Y-113664342D02*
X119261904Y-113759580D01*
X119261904Y-113759580D02*
X119214285Y-113807200D01*
X119214285Y-113807200D02*
X119119047Y-113854819D01*
X119119047Y-113854819D02*
X118833333Y-113854819D01*
X118833333Y-113854819D02*
X118738095Y-113807200D01*
X118738095Y-113807200D02*
X118690476Y-113759580D01*
X119433333Y-123597080D02*
X119385714Y-123644700D01*
X119385714Y-123644700D02*
X119242857Y-123692319D01*
X119242857Y-123692319D02*
X119147619Y-123692319D01*
X119147619Y-123692319D02*
X119004762Y-123644700D01*
X119004762Y-123644700D02*
X118909524Y-123549461D01*
X118909524Y-123549461D02*
X118861905Y-123454223D01*
X118861905Y-123454223D02*
X118814286Y-123263747D01*
X118814286Y-123263747D02*
X118814286Y-123120890D01*
X118814286Y-123120890D02*
X118861905Y-122930414D01*
X118861905Y-122930414D02*
X118909524Y-122835176D01*
X118909524Y-122835176D02*
X119004762Y-122739938D01*
X119004762Y-122739938D02*
X119147619Y-122692319D01*
X119147619Y-122692319D02*
X119242857Y-122692319D01*
X119242857Y-122692319D02*
X119385714Y-122739938D01*
X119385714Y-122739938D02*
X119433333Y-122787557D01*
X120385714Y-123692319D02*
X119814286Y-123692319D01*
X120100000Y-123692319D02*
X120100000Y-122692319D01*
X120100000Y-122692319D02*
X120004762Y-122835176D01*
X120004762Y-122835176D02*
X119909524Y-122930414D01*
X119909524Y-122930414D02*
X119814286Y-122978033D01*
X149033333Y-111754819D02*
X148700000Y-111278628D01*
X148461905Y-111754819D02*
X148461905Y-110754819D01*
X148461905Y-110754819D02*
X148842857Y-110754819D01*
X148842857Y-110754819D02*
X148938095Y-110802438D01*
X148938095Y-110802438D02*
X148985714Y-110850057D01*
X148985714Y-110850057D02*
X149033333Y-110945295D01*
X149033333Y-110945295D02*
X149033333Y-111088152D01*
X149033333Y-111088152D02*
X148985714Y-111183390D01*
X148985714Y-111183390D02*
X148938095Y-111231009D01*
X148938095Y-111231009D02*
X148842857Y-111278628D01*
X148842857Y-111278628D02*
X148461905Y-111278628D01*
X149366667Y-110754819D02*
X149985714Y-110754819D01*
X149985714Y-110754819D02*
X149652381Y-111135771D01*
X149652381Y-111135771D02*
X149795238Y-111135771D01*
X149795238Y-111135771D02*
X149890476Y-111183390D01*
X149890476Y-111183390D02*
X149938095Y-111231009D01*
X149938095Y-111231009D02*
X149985714Y-111326247D01*
X149985714Y-111326247D02*
X149985714Y-111564342D01*
X149985714Y-111564342D02*
X149938095Y-111659580D01*
X149938095Y-111659580D02*
X149890476Y-111707200D01*
X149890476Y-111707200D02*
X149795238Y-111754819D01*
X149795238Y-111754819D02*
X149509524Y-111754819D01*
X149509524Y-111754819D02*
X149414286Y-111707200D01*
X149414286Y-111707200D02*
X149366667Y-111659580D01*
X119433333Y-104959580D02*
X119385714Y-105007200D01*
X119385714Y-105007200D02*
X119242857Y-105054819D01*
X119242857Y-105054819D02*
X119147619Y-105054819D01*
X119147619Y-105054819D02*
X119004762Y-105007200D01*
X119004762Y-105007200D02*
X118909524Y-104911961D01*
X118909524Y-104911961D02*
X118861905Y-104816723D01*
X118861905Y-104816723D02*
X118814286Y-104626247D01*
X118814286Y-104626247D02*
X118814286Y-104483390D01*
X118814286Y-104483390D02*
X118861905Y-104292914D01*
X118861905Y-104292914D02*
X118909524Y-104197676D01*
X118909524Y-104197676D02*
X119004762Y-104102438D01*
X119004762Y-104102438D02*
X119147619Y-104054819D01*
X119147619Y-104054819D02*
X119242857Y-104054819D01*
X119242857Y-104054819D02*
X119385714Y-104102438D01*
X119385714Y-104102438D02*
X119433333Y-104150057D01*
X119814286Y-104150057D02*
X119861905Y-104102438D01*
X119861905Y-104102438D02*
X119957143Y-104054819D01*
X119957143Y-104054819D02*
X120195238Y-104054819D01*
X120195238Y-104054819D02*
X120290476Y-104102438D01*
X120290476Y-104102438D02*
X120338095Y-104150057D01*
X120338095Y-104150057D02*
X120385714Y-104245295D01*
X120385714Y-104245295D02*
X120385714Y-104340533D01*
X120385714Y-104340533D02*
X120338095Y-104483390D01*
X120338095Y-104483390D02*
X119766667Y-105054819D01*
X119766667Y-105054819D02*
X120385714Y-105054819D01*
X149033333Y-109254819D02*
X148700000Y-108778628D01*
X148461905Y-109254819D02*
X148461905Y-108254819D01*
X148461905Y-108254819D02*
X148842857Y-108254819D01*
X148842857Y-108254819D02*
X148938095Y-108302438D01*
X148938095Y-108302438D02*
X148985714Y-108350057D01*
X148985714Y-108350057D02*
X149033333Y-108445295D01*
X149033333Y-108445295D02*
X149033333Y-108588152D01*
X149033333Y-108588152D02*
X148985714Y-108683390D01*
X148985714Y-108683390D02*
X148938095Y-108731009D01*
X148938095Y-108731009D02*
X148842857Y-108778628D01*
X148842857Y-108778628D02*
X148461905Y-108778628D01*
X149414286Y-108350057D02*
X149461905Y-108302438D01*
X149461905Y-108302438D02*
X149557143Y-108254819D01*
X149557143Y-108254819D02*
X149795238Y-108254819D01*
X149795238Y-108254819D02*
X149890476Y-108302438D01*
X149890476Y-108302438D02*
X149938095Y-108350057D01*
X149938095Y-108350057D02*
X149985714Y-108445295D01*
X149985714Y-108445295D02*
X149985714Y-108540533D01*
X149985714Y-108540533D02*
X149938095Y-108683390D01*
X149938095Y-108683390D02*
X149366667Y-109254819D01*
X149366667Y-109254819D02*
X149985714Y-109254819D01*
X107133333Y-114559580D02*
X107085714Y-114607200D01*
X107085714Y-114607200D02*
X106942857Y-114654819D01*
X106942857Y-114654819D02*
X106847619Y-114654819D01*
X106847619Y-114654819D02*
X106704762Y-114607200D01*
X106704762Y-114607200D02*
X106609524Y-114511961D01*
X106609524Y-114511961D02*
X106561905Y-114416723D01*
X106561905Y-114416723D02*
X106514286Y-114226247D01*
X106514286Y-114226247D02*
X106514286Y-114083390D01*
X106514286Y-114083390D02*
X106561905Y-113892914D01*
X106561905Y-113892914D02*
X106609524Y-113797676D01*
X106609524Y-113797676D02*
X106704762Y-113702438D01*
X106704762Y-113702438D02*
X106847619Y-113654819D01*
X106847619Y-113654819D02*
X106942857Y-113654819D01*
X106942857Y-113654819D02*
X107085714Y-113702438D01*
X107085714Y-113702438D02*
X107133333Y-113750057D01*
X107466667Y-113654819D02*
X108085714Y-113654819D01*
X108085714Y-113654819D02*
X107752381Y-114035771D01*
X107752381Y-114035771D02*
X107895238Y-114035771D01*
X107895238Y-114035771D02*
X107990476Y-114083390D01*
X107990476Y-114083390D02*
X108038095Y-114131009D01*
X108038095Y-114131009D02*
X108085714Y-114226247D01*
X108085714Y-114226247D02*
X108085714Y-114464342D01*
X108085714Y-114464342D02*
X108038095Y-114559580D01*
X108038095Y-114559580D02*
X107990476Y-114607200D01*
X107990476Y-114607200D02*
X107895238Y-114654819D01*
X107895238Y-114654819D02*
X107609524Y-114654819D01*
X107609524Y-114654819D02*
X107514286Y-114607200D01*
X107514286Y-114607200D02*
X107466667Y-114559580D01*
D12*
%TO.C,R5*%
X146172936Y-115565000D02*
X146627064Y-115565000D01*
X146172936Y-117035000D02*
X146627064Y-117035000D01*
%TO.C,U2*%
X115900000Y-107240000D02*
X114500000Y-107240000D01*
X115910000Y-109560000D02*
X114500000Y-109560000D01*
X116520000Y-109840000D02*
X116040000Y-109840000D01*
X116280000Y-109510000D01*
X116520000Y-109840000D01*
G36*
X116520000Y-109840000D02*
G01*
X116040000Y-109840000D01*
X116280000Y-109510000D01*
X116520000Y-109840000D01*
G37*
%TO.C,R1*%
X146172936Y-105565000D02*
X146627064Y-105565000D01*
X146172936Y-107035000D02*
X146627064Y-107035000D01*
%TO.C,J2*%
X144470000Y-121470000D02*
X145800000Y-121470000D01*
X144470000Y-122800000D02*
X144470000Y-121470000D01*
X144470000Y-124070000D02*
X144470000Y-124130000D01*
X144470000Y-124070000D02*
X147130000Y-124070000D01*
X144470000Y-124130000D02*
X147130000Y-124130000D01*
X147130000Y-124070000D02*
X147130000Y-124130000D01*
%TO.C,U1*%
X123590000Y-101340000D02*
X123590000Y-101740000D01*
X123590000Y-101340000D02*
X128150000Y-101340000D01*
%TO.C,R6*%
X146172936Y-118065000D02*
X146627064Y-118065000D01*
X146172936Y-119535000D02*
X146627064Y-119535000D01*
%TO.C,R4*%
X146172936Y-113065000D02*
X146627064Y-113065000D01*
X146172936Y-114535000D02*
X146627064Y-114535000D01*
%TO.C,U4*%
X115900000Y-115040000D02*
X114500000Y-115040000D01*
X115910000Y-117360000D02*
X114500000Y-117360000D01*
X116520000Y-117640000D02*
X116040000Y-117640000D01*
X116280000Y-117310000D01*
X116520000Y-117640000D01*
G36*
X116520000Y-117640000D02*
G01*
X116040000Y-117640000D01*
X116280000Y-117310000D01*
X116520000Y-117640000D01*
G37*
%TO.C,U3*%
X115900000Y-111140000D02*
X114500000Y-111140000D01*
X115910000Y-113460000D02*
X114500000Y-113460000D01*
X116520000Y-113740000D02*
X116040000Y-113740000D01*
X116280000Y-113410000D01*
X116520000Y-113740000D01*
G36*
X116520000Y-113740000D02*
G01*
X116040000Y-113740000D01*
X116280000Y-113410000D01*
X116520000Y-113740000D01*
G37*
%TO.C,C1*%
X118765000Y-120276248D02*
X118765000Y-120798752D01*
X120235000Y-120276248D02*
X120235000Y-120798752D01*
%TO.C,J5*%
X100670000Y-117670000D02*
X102000000Y-117670000D01*
X100670000Y-119000000D02*
X100670000Y-117670000D01*
X100670000Y-120270000D02*
X100670000Y-120330000D01*
X100670000Y-120270000D02*
X103330000Y-120270000D01*
X100670000Y-120330000D02*
X103330000Y-120330000D01*
X103330000Y-120270000D02*
X103330000Y-120330000D01*
%TO.C,R3*%
X146172936Y-110565000D02*
X146627064Y-110565000D01*
X146172936Y-112035000D02*
X146627064Y-112035000D01*
%TO.C,C2*%
X118965000Y-107361252D02*
X118965000Y-106838748D01*
X120435000Y-107361252D02*
X120435000Y-106838748D01*
%TO.C,R2*%
X146172936Y-108065000D02*
X146627064Y-108065000D01*
X146172936Y-109535000D02*
X146627064Y-109535000D01*
%TO.C,J1*%
X105985000Y-100970000D02*
X105985000Y-103630000D01*
X116205000Y-100970000D02*
X105985000Y-100970000D01*
X116205000Y-100970000D02*
X116205000Y-103630000D01*
X116205000Y-103630000D02*
X105985000Y-103630000D01*
X117475000Y-100970000D02*
X118805000Y-100970000D01*
X118805000Y-100970000D02*
X118805000Y-102300000D01*
%TO.C,J4*%
X144470000Y-100670000D02*
X145800000Y-100670000D01*
X144470000Y-102000000D02*
X144470000Y-100670000D01*
X144470000Y-103270000D02*
X144470000Y-103330000D01*
X144470000Y-103270000D02*
X147130000Y-103270000D01*
X144470000Y-103330000D02*
X147130000Y-103330000D01*
X147130000Y-103270000D02*
X147130000Y-103330000D01*
%TO.C,SW1*%
X108740000Y-118290000D02*
X108740000Y-118700000D01*
X108740000Y-120300000D02*
X108740000Y-122700000D01*
X108740000Y-124300000D02*
X108740000Y-124710000D01*
X108740000Y-124710000D02*
X115160000Y-124710000D01*
X115160000Y-118290000D02*
X108740000Y-118290000D01*
X115160000Y-118700000D02*
X115160000Y-118290000D01*
X115160000Y-122700000D02*
X115160000Y-120300000D01*
X115160000Y-124710000D02*
X115160000Y-124430000D01*
%TO.C,C3*%
X110423752Y-113465000D02*
X109901248Y-113465000D01*
X110423752Y-114935000D02*
X109901248Y-114935000D01*
%TD*%
M02*
